<svg width="640" height="400" viewBox="0 0 640 400" xmlns="http://www.w3.org/2000/svg">
  <defs>
    <linearGradient id="caseGlow2" x1="0" y1="0" x2="1" y2="1">
      <stop offset="0" stop-color="#ff8a00"/>
      <stop offset="1" stop-color="#ff2e6f"/>
    </linearGradient>
    <linearGradient id="fanRing2" x1="0" y1="0" x2="1" y2="1">
      <stop offset="0" stop-color="#ffd08a"/>
      <stop offset="1" stop-color="#ff8a00"/>
    </linearGradient>
  </defs>

  <rect x="0" y="0" width="640" height="400" fill="#05070b"/>
  <rect x="40" y="40" width="560" height="320" rx="28" fill="#0b0e16" stroke="#2b2233" stroke-width="2.5"/>

  <!-- корпус -->
  <rect x="120" y="70" width="190" height="260" rx="18" fill="#05070b" stroke="url(#caseGlow2)" stroke-width="4"/>
  <rect x="130" y="80" width="170" height="240" rx="14" fill="#05070b" stroke="#3b2733" stroke-width="2"/>

  <!-- два больших вентилятора и подсветка -->
  <circle cx="205" cy="140" r="40" fill="#05070b" stroke="url(#fanRing2)" stroke-width="6"/>
  <circle cx="205" cy="140" r="18" fill="#101018"/>

  <circle cx="205" cy="230" r="40" fill="#05070b" stroke="url(#fanRing2)" stroke-width="6"/>
  <circle cx="205" cy="230" r="18" fill="#101018"/>

  <!-- свет полосы -->
  <rect x="145" y="95" width="40" height="6" rx="3" fill="#ff8a00" opacity="0.75"/>
  <rect x="145" y="185" width="55" height="6" rx="3" fill="#ff8a00" opacity="0.45"/>
  <rect x="145" y="275" width="70" height="6" rx="3" fill="#ff8a00" opacity="0.3"/>

  <!-- правая часть -->
  <text x="350" y="150" fill="#ffffff" font-family="Segoe UI, system-ui" font-size="24" font-weight="600">
    TITAN ULTRA
  </text>
  <text x="350" y="178" fill="#ffb18a" font-family="Segoe UI, system-ui" font-size="15">
    RTX 4060 Ti • PRO GAMING
  </text>
  <text x="350" y="210" fill="#b3a0b5" font-family="Segoe UI, system-ui" font-size="13">
    Сбалансированная 1440p‑машина для современных AAA‑игр.
  </text>
</svg>


